<?xml version="1.0" encoding="utf-8"?>
<!-- Generator: Adobe Illustrator 23.1.1, SVG Export Plug-In . SVG Version: 6.00 Build 0)  -->
<svg version="1.1" id="Ebene_1" xmlns="http://www.w3.org/2000/svg" xmlns:xlink="http://www.w3.org/1999/xlink" x="0px" y="0px"
	 viewBox="0 0 22 20" style="enable-background:new 0 0 22 20;" xml:space="preserve">
<style type="text/css">
	.st0{fill:#FFFFFF;}
</style>
<title>exit_icon</title>
<desc>Created with Sketch.</desc>
<g id="Nextcloud-Final">
	<g id="exit_icon">
		<path id="Fill-1" class="st0" d="M7.5,2c0.9,0,1.3,1.1,0.7,1.7L3.4,8.5H15c1.4,0,1.4,2,0,2H3.4l4.8,4.8c1,0.9-0.5,2.4-1.4,1.4
			l-6.5-6.5c-0.4-0.4-0.4-1,0-1.4l6.5-6.5C7,2.1,7.2,2,7.5,2z"/>
		<path id="Fill-4" class="st0" d="M22,1c0-0.6-0.4-1-1-1h-8c-0.6,0-1,0.4-1,1s0.4,1,1,1h7v8c0,0,0,2.7,0,8h-7c-0.6,0-1,0.4-1,1
			s0.4,1,1,1h8c0.6,0,1-0.4,1-1v-9C22,10,22,7,22,1z"/>
	</g>
</g>
</svg>
