<?xml version="1.0" encoding="utf-8"?>
<!-- Generator: Adobe Illustrator 23.1.1, SVG Export Plug-In . SVG Version: 6.00 Build 0)  -->
<svg version="1.1" id="Ebene_1" xmlns="http://www.w3.org/2000/svg" xmlns:xlink="http://www.w3.org/1999/xlink" x="0px" y="0px"
	 viewBox="0 0 538.6 158.7" style="enable-background:new 0 0 538.6 158.7;" xml:space="preserve">
<style type="text/css">
	.st0{fill:#FFFFFF;}
</style>
<g>
	<g>
		<path class="st0" d="M249.7,5.4c-6.5,0-9.9,3.8-9.9,10.6v21.9c0,6.7,3.4,10.6,9.9,10.6c6.5,0,9.9-3.8,9.9-10.6v-5.6h-6.3v6
			c0,3-1.3,4.1-3.4,4.1c-2.1,0-3.4-1.1-3.4-4.1V15.6c0-3,1.3-4.1,3.4-4.1c2.1,0,3.4,1.1,3.4,4.1v4.5h6.3V16
			C259.5,9.3,256.2,5.4,249.7,5.4"/>
	</g>
	<rect x="269.3" y="5.9" class="st0" width="6.6" height="42.1"/>
	<polygon class="st0" points="307.5,5.9 301.5,5.9 296.4,40.2 291.4,5.9 284.7,5.9 291.2,48 301,48 	"/>
	<rect x="316.3" y="5.9" class="st0" width="6.6" height="42.1"/>
	<polygon class="st0" points="340.1,5.9 333.5,5.9 333.5,48 351,48 351,42 340.1,42 	"/>
	<g>
		<path class="st0" d="M249.2,57.6c-6.4,0-9.7,3.8-9.7,10.6c0,12,12.9,13.6,12.9,22.3c0,3-1.3,4.1-3.4,4.1c-2.1,0-3.4-1.1-3.4-4.1
			v-3h-6.3V90c0,6.7,3.4,10.6,9.9,10.6c6.5,0,9.9-3.8,9.9-10.6c0-12-12.9-13.6-12.9-22.3c0-3,1.2-4.1,3.3-4.1c2.1,0,3.3,1.1,3.3,4.1
			v1.7h6.3v-1.3C259,61.4,255.7,57.6,249.2,57.6"/>
		<path class="st0" d="M278.1,57.6c-6.5,0-10,3.8-10,10.6V90c0,6.7,3.5,10.6,10,10.6c6.5,0,10-3.8,10-10.6V68.1
			C288.1,61.4,284.6,57.6,278.1,57.6 M278.1,94.6c-2.1,0-3.4-1.1-3.4-4.1V67.7c0-3,1.3-4.1,3.4-4.1c2.1,0,3.4,1.1,3.4,4.1v22.7
			C281.5,93.5,280.2,94.6,278.1,94.6"/>
		<path class="st0" d="M307.4,57.6c-6.5,0-9.9,3.8-9.9,10.6V90c0,6.7,3.4,10.6,9.9,10.6c6.5,0,9.9-3.8,9.9-10.6v-5.6H311v6
			c0,3-1.3,4.1-3.4,4.1c-2.1,0-3.4-1.1-3.4-4.1V67.7c0-3,1.3-4.1,3.4-4.1c2.1,0,3.4,1.1,3.4,4.1v4.5h6.3v-4.1
			C317.3,61.4,313.9,57.6,307.4,57.6"/>
	</g>
	<rect x="327" y="58" class="st0" width="6.6" height="42.1"/>
	<polygon class="st0" points="362.2,58 344.2,58 344.2,100.1 362.2,100.1 362.2,94.1 350.8,94.1 350.8,81.8 359.9,81.8 359.9,75.8 
		350.8,75.8 350.8,64.1 362.2,64.1 	"/>
	<polygon class="st0" points="390.5,58 370.1,58 370.1,64.1 377,64.1 377,100.1 383.6,100.1 383.6,64.1 390.5,64.1 	"/>
	<polygon class="st0" points="420.3,58 414,58 409,77.2 403.9,58 397,58 405.3,86.2 405.3,100.1 412,100.1 412,86.2 	"/>
	<g>
		<path class="st0" d="M249.7,109.7c-6.5,0-9.9,3.8-9.9,10.6v21.9c0,6.7,3.4,10.6,9.9,10.6c6.5,0,9.9-3.8,9.9-10.6v-5.6h-6.3v6
			c0,3-1.3,4.1-3.4,4.1c-2.1,0-3.4-1.1-3.4-4.1v-22.7c0-3,1.3-4.1,3.4-4.1c2.1,0,3.4,1.1,3.4,4.1v4.5h6.3v-4.1
			C259.5,113.6,256.2,109.7,249.7,109.7"/>
		<path class="st0" d="M278.8,109.7c-6.5,0-10,3.8-10,10.6v21.9c0,6.7,3.5,10.6,10,10.6c6.5,0,10-3.8,10-10.6v-21.9
			C288.8,113.6,285.3,109.7,278.8,109.7 M278.8,146.7c-2.1,0-3.4-1.1-3.4-4.1v-22.7c0-3,1.3-4.1,3.4-4.1c2.1,0,3.4,1.1,3.4,4.1v22.7
			C282.2,145.6,280.9,146.7,278.8,146.7"/>
		<path class="st0" d="M308.3,109.7c-6.5,0-10,3.8-10,10.6v21.9c0,6.7,3.5,10.6,10,10.6c6.5,0,10-3.8,10-10.6v-21.9
			C318.4,113.6,314.8,109.7,308.3,109.7 M308.3,146.7c-2.1,0-3.4-1.1-3.4-4.1v-22.7c0-3,1.3-4.1,3.4-4.1c2.1,0,3.4,1.1,3.4,4.1v22.7
			C311.7,145.6,310.4,146.7,308.3,146.7"/>
		<path class="st0" d="M338.1,110.2h-9.7v42.1h6.6v-15.8h3.1c6.6,0,9.9-3.7,9.9-10.4v-5.5C348,113.9,344.7,110.2,338.1,110.2
			 M335,130.4v-14.3h3.1c2.1,0,3.2,1,3.2,4v6.3c0,3-1.1,4-3.2,4H335z"/>
	</g>
	<polygon class="st0" points="374.8,110.2 356.7,110.2 356.7,152.3 374.8,152.3 374.8,146.3 363.4,146.3 363.4,133.9 372.4,133.9 
		372.4,127.9 363.4,127.9 363.4,116.2 374.8,116.2 	"/>
	<g>
		<path class="st0" d="M394.6,110.2h-10v42.1h6.6v-17.1h2.3c3,0,4.3,1.4,4.3,5.4v6.6c0,3.4,0.2,4.1,0.6,5.2h6.7
			c-0.7-1.6-0.7-3.1-0.7-5.1v-6.5c0-4.4-1.1-7.6-4.4-9c2.9-1.4,4.3-4.2,4.3-8.5v-3.3C404.4,113.4,401.4,110.2,394.6,110.2
			 M391.2,129.1v-12.9h3.2c2.3,0,3.4,1.3,3.4,4.3v4.2c0,3.4-1.5,4.5-4,4.5H391.2z"/>
	</g>
	<path class="st0" d="M429.2,110.2h-9.7l-6.7,42.1h6.1l1.1-7.6h8.1l1.1,7.6h6.7L429.2,110.2z M420.8,138.9l3.2-21.3l3.2,21.3H420.8z
		"/>
	<polygon class="st0" points="460.9,110.2 440.5,110.2 440.5,116.2 447.4,116.2 447.4,152.3 454,152.3 454,116.2 460.9,116.2 	"/>
	<rect x="469.5" y="110.2" class="st0" width="6.6" height="42.1"/>
	<g>
		<path class="st0" d="M496.2,109.7c-6.5,0-10,3.8-10,10.6v21.9c0,6.7,3.5,10.6,10,10.6c6.5,0,10-3.8,10-10.6v-21.9
			C506.2,113.6,502.7,109.7,496.2,109.7 M496.2,146.7c-2.1,0-3.4-1.1-3.4-4.1v-22.7c0-3,1.3-4.1,3.4-4.1c2.1,0,3.4,1.1,3.4,4.1v22.7
			C499.6,145.6,498.3,146.7,496.2,146.7"/>
	</g>
	<polygon class="st0" points="537.1,110.2 531.2,110.2 531.2,135.4 524.5,110.2 516.2,110.2 516.2,152.3 522.1,152.3 522.1,121.8 
		530.3,152.3 537.1,152.3 	"/>
	<rect x="203.3" y="5.9" class="st0" width="3.1" height="146.6"/>
	<g>
		<path class="st0" d="M73.3,1.8C42.6,1.8,3.5,15.2,1.5,49.6C0.7,63.5,7.4,74,16.3,81.8c13.4,11.7,31.7,17,37.3,17.8l0,0
			c4.7,1,9.3,1.5,13.4,1.7c0.2,0,0.5,0,0.7,0c9.6,0,15.5-3,15.1-9.1c-0.3-5-4.4-6.7-7.6-7.3c-0.9-0.2-1.7-0.3-2.4-0.3
			c-6-0.5-13.2-1.7-18.8-4c-3-1.2-5.6-2.6-7.4-4.3c-0.8-0.8-1.6-2-1.7-4.1c0-0.4-0.1-0.9,0-1.4c0.1-0.7,0.3-2.4,2-4.7
			c0.8-1.1,2-2.2,3.6-3.4c10-7.3,30.9-12.8,50.7-12.8c6.5,0,13,0.6,18.8,1.9c2.6,0.6,4.9,0.9,6.9,0.9c12.8,0,12.6-10.8-3.8-15.2
			c-2.2-0.6-4.4-1.1-6.6-1.5c11-2.2,9-12.1-7.1-14.4c-2.4-0.4-4.9-0.6-7.4-0.8c3.5-4.2-2.6-10.4-15.8-10.4h-0.1
			c2.8-3.6-2.3-8.4-12.1-8.5C73.9,1.8,73.6,1.8,73.3,1.8"/>
		<path class="st0" d="M109.4,57.5c-9.6,0-15.5,3-15.1,9.1c0.3,5,4.4,6.7,7.6,7.3c0.9,0.2,1.7,0.3,2.4,0.3c6,0.5,13.1,1.7,18.8,4
			c3,1.2,5.6,2.6,7.4,4.3c0.8,0.8,1.6,2,1.7,4.1c0,0.4,0.1,0.9,0,1.4c-0.1,0.7-0.3,2.4-2,4.7c-0.8,1.1-2,2.2-3.6,3.4
			c-10,7.3-30.9,12.8-50.7,12.8c-6.5,0-13-0.6-18.8-1.9c-2.6-0.6-4.9-0.9-6.9-0.9c-12.8,0-12.6,10.8,3.8,15.2
			c2.2,0.6,4.4,1.1,6.6,1.5c-11,2.2-9,12.1,7.1,14.4c2.4,0.4,4.9,0.6,7.4,0.8c-3.5,4.2,2.6,10.4,15.8,10.4c0,0,0.1,0,0.1,0
			c-2.8,3.6,2.3,8.4,12.1,8.5c0.3,0,0.6,0,1,0c30.7,0,69.8-13.4,71.8-47.8c0.8-13.9-5.9-24.5-14.8-32.2
			c-13.4-11.7-31.7-17-37.3-17.8l0,0c-4.7-1-9.3-1.5-13.4-1.7C109.9,57.5,109.7,57.5,109.4,57.5"/>
	</g>
</g>
</svg>
