<?xml version="1.0" encoding="UTF-8" standalone="no"?>
<svg
   xmlns:dc="http://purl.org/dc/elements/1.1/"
   xmlns:cc="http://creativecommons.org/ns#"
   xmlns:rdf="http://www.w3.org/1999/02/22-rdf-syntax-ns#"
   xmlns:svg="http://www.w3.org/2000/svg"
   xmlns="http://www.w3.org/2000/svg"
   viewBox="0 0 623.14667 76.58667"
   height="76.58667"
   width="623.14667"
   xml:space="preserve"
   id="svg2"
   version="1.1"><metadata
     id="metadata8"><rdf:RDF><cc:Work
         rdf:about=""><dc:format>image/svg+xml</dc:format><dc:type
           rdf:resource="http://purl.org/dc/dcmitype/StillImage" /></cc:Work></rdf:RDF></metadata><defs
     id="defs6" /><g
     transform="matrix(1.3333333,0,0,-1.3333333,0,76.586667)"
     id="g10"><g
       transform="scale(0.1)"
       id="g12"><path
         id="path14"
         style="fill:#403359;fill-opacity:1;fill-rule:nonzero;stroke:none"
         d="M 0.769531,547.137 C 0.257813,549.27 0,551.145 0,553.02 c 0.257813,3.066 1.19531,5.796 2.72656,8.183 2.5586,3.578 6.73438,5.453 12.44534,5.453 h 93.5901 c 3.07,0 5.968,-1.191 8.695,-3.496 2.727,-2.387 4.52,-4.941 5.285,-7.84 l 69.039,-270.457 h 3.071 l 123.593,281.028 c 2.813,5.711 7.332,8.523 13.641,8.523 h 14.402 c 7.246,0 11.766,-2.812 13.641,-8.523 L 483.637,284.863 h 3.152 l 68.957,270.457 c 0.77,2.899 2.559,5.453 5.285,7.84 2.727,2.305 5.625,3.496 8.782,3.496 h 93.503 c 5.965,0 10.227,-1.875 12.872,-5.453 1.789,-2.387 2.554,-5.117 2.3,-8.183 0,-1.875 -0.258,-3.75 -0.765,-5.883 L 526.938,10.9102 C 526.168,7.75781 524.293,5.19922 521.48,3.07031 518.582,1.02344 515.598,0 512.531,0 H 499.66 c -6.222,0 -10.824,2.8125 -13.637,8.52344 L 340.266,335.152 h -2.727 L 192.551,8.52344 C 189.652,2.8125 185.137,0 178.914,0 h -12.871 c -3.156,0 -6.137,1.02344 -8.949,3.07031 -2.899,2.12891 -4.688,4.6875 -5.457,7.83989 L 0.769531,547.137" /><path
         id="path16"
         style="fill:#403359;fill-opacity:1;fill-rule:nonzero;stroke:none"
         d="M 795.008,22.9297 V 551.398 c 0,4.176 1.363,7.758 4.262,10.743 2.898,2.98 6.476,4.515 10.91,4.515 h 330.46 c 4.44,0 8.1,-1.535 10.91,-4.515 2.9,-2.985 4.35,-6.567 4.35,-10.743 v -87.281 c 0,-3.836 -1.45,-7.332 -4.26,-10.316 -2.9,-2.981 -6.48,-4.43 -10.91,-4.43 H 920.477 v -99.047 h 181.293 c 3.84,0 7.34,-1.535 10.32,-4.687 2.9,-3.071 4.43,-6.563 4.43,-10.485 v -87.281 c 0,-4.433 -1.45,-8.016 -4.26,-10.742 -2.9,-2.727 -6.31,-4.09 -10.49,-4.09 H 920.477 V 125.043 h 220.253 c 4.43,0 8.01,-1.449 10.91,-4.434 2.81,-2.98 4.26,-6.562 4.26,-10.738 V 22.9297 c 0,-4.0899 -1.45,-7.6719 -4.35,-10.6563 -2.81,-2.98434 -6.47,-4.51559 -10.91,-4.51559 H 810.18 c -4.434,0 -8.012,1.53125 -10.91,4.51559 -2.899,2.9844 -4.262,6.5664 -4.262,10.6563" /><path
         id="path18"
         style="fill:#403359;fill-opacity:1;fill-rule:nonzero;stroke:none"
         d="m 1254.09,287.93 c 0,39.039 7.59,76.289 22.85,111.664 15.17,35.371 35.54,65.801 61.2,91.285 25.57,25.488 56.17,45.773 91.71,60.859 35.63,15.176 73.05,22.676 112.26,22.676 39.21,0 74.41,-6.055 105.44,-18.07 31.03,-12.106 60.35,-30.774 87.88,-55.918 3.66,-3.153 5.45,-7.074 5.45,-11.762 0,-4.09 -1.62,-7.758 -4.77,-10.91 l -63.84,-64.695 c -2.9,-2.555 -6.4,-3.836 -10.32,-3.836 -4,0 -7.33,1.363 -9.97,4.175 -31.11,29.153 -67.93,43.731 -110.47,43.731 -45.51,0 -83.53,-16.281 -114.13,-48.758 -30.51,-32.562 -45.86,-71.683 -45.86,-117.285 0,-45.094 15.43,-83.703 46.29,-115.668 30.85,-32.051 69.04,-47.988 114.47,-47.988 19.44,0 38.87,3.41 58.39,10.226 19.6,6.821 36.65,16.367 51.31,28.727 2.64,2.301 6.22,3.41 10.74,3.152 4.52,-0.254 8.01,-1.703 10.4,-4.344 l 63.76,-66.5738 c 2.64,-2.6406 4,-6.0508 4,-10.2266 0,-4.6015 -1.53,-8.4375 -4.68,-11.25 C 1683.18,25.6563 1618.48,0 1542.11,0 c -26.25,0 -51.82,3.32422 -76.8,10.1445 -24.89,6.8164 -47.9,16.3633 -68.96,28.6368 -21.05,12.2773 -40.4,27.1914 -58.04,44.8359 -17.65,17.6448 -32.73,36.9918 -45.01,58.1328 -12.36,21.223 -21.99,44.238 -28.89,69.211 -6.82,24.891 -10.32,50.633 -10.32,76.969" /><path
         id="path20"
         style="fill:#403359;fill-opacity:1;fill-rule:nonzero;stroke:none"
         d="M 1863.62,22.9297 V 551.398 c 0,3.922 1.54,7.418 4.69,10.571 3.07,3.152 6.57,4.687 10.49,4.687 h 95.12 c 4.43,0 8.01,-1.535 10.91,-4.515 2.82,-2.985 4.26,-6.567 4.26,-10.743 V 350.324 h 228.01 v 201.074 c 0,4.176 1.45,7.758 4.26,10.743 2.9,2.98 6.48,4.515 10.92,4.515 h 95.12 c 3.92,0 7.42,-1.535 10.48,-4.687 3.16,-3.153 4.69,-6.649 4.69,-10.571 V 22.9297 c 0,-3.8359 -1.53,-7.418 -4.69,-10.4844 -3.06,-3.15624 -6.56,-4.68749 -10.48,-4.68749 h -95.12 c -4.44,0 -8.02,1.53125 -10.92,4.51559 -2.81,2.9844 -4.26,6.5664 -4.26,10.6563 V 233.039 H 1989.09 V 22.9297 c 0,-4.0899 -1.44,-7.6719 -4.26,-10.6563 -2.9,-2.98434 -6.48,-4.51559 -10.91,-4.51559 h -95.12 c -3.92,0 -7.42,1.53125 -10.49,4.68749 -3.15,3.0664 -4.69,6.6485 -4.69,10.4844" /><path
         id="path22"
         style="fill:#403359;fill-opacity:1;fill-rule:nonzero;stroke:none"
         d="m 2646.61,199.539 h 121.55 l -60.77,131.352 h -0.77 z M 2440,29.3203 2689.83,565.891 c 2.9,5.711 7.41,8.523 13.64,8.523 h 7.84 c 6.22,0 10.74,-2.812 13.64,-8.523 L 2974.78,29.3203 c 1.02,-2.3867 1.53,-4.6875 1.53,-6.9883 0,-3.0664 -0.77,-5.7109 -2.3,-7.9257 -2.64,-4.43364 -6.91,-6.64849 -12.87,-6.64849 h -88.48 c -7.33,0 -12.95,1.53125 -16.96,4.60159 -4.01,2.9844 -7.76,8.5234 -11.08,16.6211 l -28.9,67.2539 h -217.1 l -28.38,-68.1055 c -5.2,-13.5547 -14.83,-20.37109 -28.89,-20.37109 h -87.71 c -5.97,0 -10.23,2.21485 -12.79,6.64849 -1.62,2.4726 -2.39,5.1132 -2.39,7.9257 0,2.3008 0.52,4.6016 1.54,6.9883" /><path
         id="path24"
         style="fill:#403359;fill-opacity:1;fill-rule:nonzero;stroke:none"
         d="m 3071.01,560.008 c 0,3.922 1.53,7.246 4.6,10.144 3.15,2.813 6.65,4.262 10.57,4.262 h 19.86 L 3424.49,268.07 h 0.76 v 283.328 c 0,4.176 1.45,7.758 4.27,10.743 2.81,2.98 6.47,4.515 10.82,4.515 h 95.3 c 3.83,0 7.33,-1.535 10.48,-4.687 3.07,-3.153 4.6,-6.649 4.6,-10.571 V 13.9805 c 0,-3.9219 -1.53,-7.16019 -4.68,-9.89066 C 3542.97,1.36328 3539.47,0 3535.55,0 h -12.79 c -4.17,0 -7.58,1.27734 -10.14,3.83594 L 3198.01,320.746 h -0.77 V 22.9297 c 0,-4.0899 -1.44,-7.6719 -4.26,-10.6563 -2.9,-2.98434 -6.47,-4.51559 -10.91,-4.51559 h -95.12 c -3.92,0 -7.42,1.53125 -10.49,4.68749 -3.15,3.0664 -4.68,6.6485 -4.68,10.4844 l -0.77,537.0783" /><path
         id="path26"
         style="fill:#403359;fill-opacity:1;fill-rule:nonzero;stroke:none"
         d="m 3702.87,176.953 c -14.66,35.883 -21.99,72.793 -21.99,110.809 0,38.101 7.33,74.922 21.99,110.383 14.58,35.543 34.27,66.14 58.9,91.796 24.72,25.575 54.3,45.946 88.65,61.032 34.43,15.172 70.57,22.672 108.33,22.672 33.76,0 67.94,-6.649 102.54,-19.946 34.52,-13.297 65.29,-31.707 92.31,-55.234 3.67,-2.895 5.63,-6.477 5.89,-10.738 0.25,-4.348 -1.2,-8.012 -4.35,-11.164 l -63.67,-67.34 c -7.16,-6.051 -14.32,-6.309 -21.65,-0.938 -27.36,25.317 -62.06,37.93 -103.99,37.93 -43.56,0 -80.64,-15.684 -111.41,-47.051 -30.68,-31.449 -46.03,-68.871 -46.03,-112.34 0,-43.558 15.43,-80.89 46.46,-112.004 31.03,-31.109 68.19,-46.625 111.75,-46.625 26.08,0 49.43,4.606 70.15,13.809 v 49.695 h -49.36 c -4.34,0 -7.92,1.364 -10.74,4.09 -2.81,2.727 -4.17,5.969 -4.17,9.633 v 75.094 c 0,4.175 1.36,7.672 4.26,10.398 2.81,2.727 6.48,4.094 10.91,4.094 h 160.16 c 3.92,0 7.24,-1.535 10.14,-4.692 2.82,-3.152 4.26,-6.648 4.26,-10.484 l 0.77,-214.4531 c 0,-5.1992 -2.04,-9.3789 -6.22,-12.4453 -2.39,-1.3633 -5.63,-3.1563 -9.89,-5.543 -4.17,-2.3008 -13.04,-6.5625 -26.51,-12.5273 -13.55,-6.0547 -27.53,-11.3399 -42.1,-15.8555 -14.5,-4.6015 -32.65,-8.7773 -54.47,-12.61327 -21.82,-3.7539 -43.47,-5.628905 -65.04,-5.628905 -37.76,0 -73.9,7.585935 -108.33,22.675775 -34.35,15.1719 -63.93,35.543 -88.65,61.2852 -24.63,25.6564 -44.32,56.4254 -58.9,92.2264" /><path
         id="path28"
         style="fill:#403359;fill-opacity:1;fill-rule:nonzero;stroke:none"
         d="M 4312.66,22.9297 V 551.398 c 0,4.176 1.36,7.758 4.26,10.743 2.9,2.98 6.48,4.515 10.91,4.515 h 330.46 c 4.44,0 8.1,-1.535 10.91,-4.515 2.9,-2.985 4.35,-6.567 4.35,-10.743 v -87.281 c 0,-3.836 -1.45,-7.332 -4.26,-10.316 -2.9,-2.981 -6.48,-4.43 -10.91,-4.43 h -220.25 v -99.047 h 181.3 c 3.83,0 7.33,-1.535 10.31,-4.687 2.9,-3.071 4.43,-6.563 4.43,-10.485 v -87.281 c 0,-4.433 -1.45,-8.016 -4.26,-10.742 -2.9,-2.727 -6.31,-4.09 -10.48,-4.09 h -181.3 V 125.043 h 220.25 c 4.43,0 8.01,-1.449 10.91,-4.434 2.81,-2.98 4.26,-6.562 4.26,-10.738 V 22.9297 c 0,-4.0899 -1.45,-7.6719 -4.35,-10.6563 -2.81,-2.98434 -6.47,-4.51559 -10.91,-4.51559 h -330.46 c -4.43,0 -8.01,1.53125 -10.91,4.51559 -2.9,2.9844 -4.26,6.5664 -4.26,10.6563" /></g></g></svg>